<mxfile host="Electron" modified="2024-07-10T13:49:31.628Z" agent="Mozilla/5.0 (Windows NT 10.0; Win64; x64) AppleWebKit/537.36 (KHTML, like Gecko) draw.io/24.6.4 Chrome/124.0.6367.207 Electron/30.0.6 Safari/537.36" etag="9bAClFMV0gbZtlRYjUj5" version="24.6.4" type="device" pages="2">
  <diagram name="Страница — 1" id="f_v4i7sCo_YOXjaYoYyY">
    <mxGraphModel dx="1050" dy="629" grid="0" gridSize="10" guides="1" tooltips="1" connect="1" arrows="1" fold="1" page="1" pageScale="1" pageWidth="827" pageHeight="1169" math="0" shadow="0">
      <root>
        <mxCell id="0" />
        <mxCell id="1" parent="0" />
        <mxCell id="5fEkNX3tAa7af-l1s7IT-1" value="User" style="swimlane;fontStyle=0;childLayout=stackLayout;horizontal=1;startSize=30;horizontalStack=0;resizeParent=1;resizeParentMax=0;resizeLast=0;collapsible=1;marginBottom=0;whiteSpace=wrap;html=1;" parent="1" vertex="1">
          <mxGeometry x="153" y="51" width="140" height="150" as="geometry" />
        </mxCell>
        <mxCell id="5fEkNX3tAa7af-l1s7IT-2" value="&lt;b&gt;&lt;u&gt;user_id&lt;/u&gt;&lt;/b&gt;" style="text;strokeColor=none;fillColor=none;align=left;verticalAlign=middle;spacingLeft=4;spacingRight=4;overflow=hidden;points=[[0,0.5],[1,0.5]];portConstraint=eastwest;rotatable=0;whiteSpace=wrap;html=1;" parent="5fEkNX3tAa7af-l1s7IT-1" vertex="1">
          <mxGeometry y="30" width="140" height="30" as="geometry" />
        </mxCell>
        <mxCell id="5fEkNX3tAa7af-l1s7IT-3" value="login" style="text;strokeColor=none;fillColor=none;align=left;verticalAlign=middle;spacingLeft=4;spacingRight=4;overflow=hidden;points=[[0,0.5],[1,0.5]];portConstraint=eastwest;rotatable=0;whiteSpace=wrap;html=1;" parent="5fEkNX3tAa7af-l1s7IT-1" vertex="1">
          <mxGeometry y="60" width="140" height="30" as="geometry" />
        </mxCell>
        <mxCell id="5fEkNX3tAa7af-l1s7IT-4" value="password" style="text;align=left;verticalAlign=middle;spacingLeft=4;spacingRight=4;overflow=hidden;points=[[0,0.5],[1,0.5]];portConstraint=eastwest;rotatable=0;whiteSpace=wrap;html=1;" parent="5fEkNX3tAa7af-l1s7IT-1" vertex="1">
          <mxGeometry y="90" width="140" height="30" as="geometry" />
        </mxCell>
        <mxCell id="5fEkNX3tAa7af-l1s7IT-16" value="email" style="text;align=left;verticalAlign=middle;spacingLeft=4;spacingRight=4;overflow=hidden;points=[[0,0.5],[1,0.5]];portConstraint=eastwest;rotatable=0;whiteSpace=wrap;html=1;" parent="5fEkNX3tAa7af-l1s7IT-1" vertex="1">
          <mxGeometry y="120" width="140" height="30" as="geometry" />
        </mxCell>
        <mxCell id="5fEkNX3tAa7af-l1s7IT-18" value="Recipe" style="swimlane;fontStyle=0;childLayout=stackLayout;horizontal=1;startSize=30;horizontalStack=0;resizeParent=1;resizeParentMax=0;resizeLast=0;collapsible=1;marginBottom=0;whiteSpace=wrap;html=1;" parent="1" vertex="1">
          <mxGeometry x="582" y="254" width="140" height="240" as="geometry" />
        </mxCell>
        <mxCell id="5fEkNX3tAa7af-l1s7IT-19" value="&lt;b&gt;&lt;u&gt;recipe_id&lt;/u&gt;&lt;/b&gt;" style="text;strokeColor=none;fillColor=none;align=left;verticalAlign=middle;spacingLeft=4;spacingRight=4;overflow=hidden;points=[[0,0.5],[1,0.5]];portConstraint=eastwest;rotatable=0;whiteSpace=wrap;html=1;" parent="5fEkNX3tAa7af-l1s7IT-18" vertex="1">
          <mxGeometry y="30" width="140" height="30" as="geometry" />
        </mxCell>
        <mxCell id="5fEkNX3tAa7af-l1s7IT-20" value="name" style="text;strokeColor=none;fillColor=none;align=left;verticalAlign=middle;spacingLeft=4;spacingRight=4;overflow=hidden;points=[[0,0.5],[1,0.5]];portConstraint=eastwest;rotatable=0;whiteSpace=wrap;html=1;" parent="5fEkNX3tAa7af-l1s7IT-18" vertex="1">
          <mxGeometry y="60" width="140" height="30" as="geometry" />
        </mxCell>
        <mxCell id="5fEkNX3tAa7af-l1s7IT-21" value="calories_on_hund_g" style="text;strokeColor=none;fillColor=none;align=left;verticalAlign=middle;spacingLeft=4;spacingRight=4;overflow=hidden;points=[[0,0.5],[1,0.5]];portConstraint=eastwest;rotatable=0;whiteSpace=wrap;html=1;" parent="5fEkNX3tAa7af-l1s7IT-18" vertex="1">
          <mxGeometry y="90" width="140" height="30" as="geometry" />
        </mxCell>
        <mxCell id="5fEkNX3tAa7af-l1s7IT-27" value="time_to_cook" style="text;align=left;verticalAlign=middle;spacingLeft=4;spacingRight=4;overflow=hidden;points=[[0,0.5],[1,0.5]];portConstraint=eastwest;rotatable=0;whiteSpace=wrap;html=1;" parent="5fEkNX3tAa7af-l1s7IT-18" vertex="1">
          <mxGeometry y="120" width="140" height="30" as="geometry" />
        </mxCell>
        <mxCell id="5fEkNX3tAa7af-l1s7IT-26" value="dose_num" style="text;align=left;verticalAlign=middle;spacingLeft=4;spacingRight=4;overflow=hidden;points=[[0,0.5],[1,0.5]];portConstraint=eastwest;rotatable=0;whiteSpace=wrap;html=1;" parent="5fEkNX3tAa7af-l1s7IT-18" vertex="1">
          <mxGeometry y="150" width="140" height="30" as="geometry" />
        </mxCell>
        <mxCell id="5fEkNX3tAa7af-l1s7IT-22" value="short_description" style="text;html=1;align=left;verticalAlign=middle;whiteSpace=wrap;rounded=0;spacingLeft=4;spacingRight=4;" parent="5fEkNX3tAa7af-l1s7IT-18" vertex="1">
          <mxGeometry y="180" width="140" height="30" as="geometry" />
        </mxCell>
        <mxCell id="5fEkNX3tAa7af-l1s7IT-28" value="time_when_added" style="text;align=left;verticalAlign=middle;spacingLeft=4;spacingRight=4;overflow=hidden;points=[[0,0.5],[1,0.5]];portConstraint=eastwest;rotatable=0;whiteSpace=wrap;html=1;" parent="5fEkNX3tAa7af-l1s7IT-18" vertex="1">
          <mxGeometry y="210" width="140" height="30" as="geometry" />
        </mxCell>
        <mxCell id="id5cuRZvyyORNxoi3UNM-1" value="Rating" style="swimlane;fontStyle=0;childLayout=stackLayout;horizontal=1;startSize=30;horizontalStack=0;resizeParent=1;resizeParentMax=0;resizeLast=0;collapsible=1;marginBottom=0;whiteSpace=wrap;html=1;" vertex="1" parent="1">
          <mxGeometry x="228" y="329" width="140" height="90" as="geometry" />
        </mxCell>
        <mxCell id="id5cuRZvyyORNxoi3UNM-2" value="&lt;b&gt;&lt;u&gt;rating_id&lt;/u&gt;&lt;/b&gt;" style="text;strokeColor=none;fillColor=none;align=left;verticalAlign=middle;spacingLeft=4;spacingRight=4;overflow=hidden;points=[[0,0.5],[1,0.5]];portConstraint=eastwest;rotatable=0;whiteSpace=wrap;html=1;" vertex="1" parent="id5cuRZvyyORNxoi3UNM-1">
          <mxGeometry y="30" width="140" height="30" as="geometry" />
        </mxCell>
        <mxCell id="id5cuRZvyyORNxoi3UNM-5" value="rating" style="text;strokeColor=none;fillColor=none;align=left;verticalAlign=middle;spacingLeft=4;spacingRight=4;overflow=hidden;points=[[0,0.5],[1,0.5]];portConstraint=eastwest;rotatable=0;whiteSpace=wrap;html=1;" vertex="1" parent="id5cuRZvyyORNxoi3UNM-1">
          <mxGeometry y="60" width="140" height="30" as="geometry" />
        </mxCell>
        <mxCell id="id5cuRZvyyORNxoi3UNM-6" value="Section" style="swimlane;fontStyle=0;childLayout=stackLayout;horizontal=1;startSize=30;horizontalStack=0;resizeParent=1;resizeParentMax=0;resizeLast=0;collapsible=1;marginBottom=0;whiteSpace=wrap;html=1;" vertex="1" parent="1">
          <mxGeometry x="582" y="51" width="140" height="120" as="geometry" />
        </mxCell>
        <mxCell id="id5cuRZvyyORNxoi3UNM-7" value="&lt;b&gt;&lt;u&gt;section_id&lt;/u&gt;&lt;/b&gt;" style="text;strokeColor=none;fillColor=none;align=left;verticalAlign=middle;spacingLeft=4;spacingRight=4;overflow=hidden;points=[[0,0.5],[1,0.5]];portConstraint=eastwest;rotatable=0;whiteSpace=wrap;html=1;" vertex="1" parent="id5cuRZvyyORNxoi3UNM-6">
          <mxGeometry y="30" width="140" height="30" as="geometry" />
        </mxCell>
        <mxCell id="id5cuRZvyyORNxoi3UNM-8" value="name" style="text;strokeColor=none;fillColor=none;align=left;verticalAlign=middle;spacingLeft=4;spacingRight=4;overflow=hidden;points=[[0,0.5],[1,0.5]];portConstraint=eastwest;rotatable=0;whiteSpace=wrap;html=1;" vertex="1" parent="id5cuRZvyyORNxoi3UNM-6">
          <mxGeometry y="60" width="140" height="30" as="geometry" />
        </mxCell>
        <mxCell id="id5cuRZvyyORNxoi3UNM-24" value="image" style="text;strokeColor=none;fillColor=none;align=left;verticalAlign=middle;spacingLeft=4;spacingRight=4;overflow=hidden;points=[[0,0.5],[1,0.5]];portConstraint=eastwest;rotatable=0;whiteSpace=wrap;html=1;" vertex="1" parent="id5cuRZvyyORNxoi3UNM-6">
          <mxGeometry y="90" width="140" height="30" as="geometry" />
        </mxCell>
        <mxCell id="id5cuRZvyyORNxoi3UNM-14" value="Commentary" style="swimlane;fontStyle=0;childLayout=stackLayout;horizontal=1;startSize=30;horizontalStack=0;resizeParent=1;resizeParentMax=0;resizeLast=0;collapsible=1;marginBottom=0;whiteSpace=wrap;html=1;" vertex="1" parent="1">
          <mxGeometry x="153" y="477" width="140" height="120" as="geometry" />
        </mxCell>
        <mxCell id="id5cuRZvyyORNxoi3UNM-15" value="&lt;b&gt;&lt;u&gt;comm_id&lt;/u&gt;&lt;/b&gt;" style="text;strokeColor=none;fillColor=none;align=left;verticalAlign=middle;spacingLeft=4;spacingRight=4;overflow=hidden;points=[[0,0.5],[1,0.5]];portConstraint=eastwest;rotatable=0;whiteSpace=wrap;html=1;" vertex="1" parent="id5cuRZvyyORNxoi3UNM-14">
          <mxGeometry y="30" width="140" height="30" as="geometry" />
        </mxCell>
        <mxCell id="id5cuRZvyyORNxoi3UNM-16" value="order_num" style="text;strokeColor=none;fillColor=none;align=left;verticalAlign=middle;spacingLeft=4;spacingRight=4;overflow=hidden;points=[[0,0.5],[1,0.5]];portConstraint=eastwest;rotatable=0;whiteSpace=wrap;html=1;" vertex="1" parent="id5cuRZvyyORNxoi3UNM-14">
          <mxGeometry y="60" width="140" height="30" as="geometry" />
        </mxCell>
        <mxCell id="id5cuRZvyyORNxoi3UNM-40" value="text" style="text;strokeColor=none;fillColor=none;align=left;verticalAlign=middle;spacingLeft=4;spacingRight=4;overflow=hidden;points=[[0,0.5],[1,0.5]];portConstraint=eastwest;rotatable=0;whiteSpace=wrap;html=1;" vertex="1" parent="id5cuRZvyyORNxoi3UNM-14">
          <mxGeometry y="90" width="140" height="30" as="geometry" />
        </mxCell>
        <mxCell id="id5cuRZvyyORNxoi3UNM-18" value="CookStep" style="swimlane;fontStyle=0;childLayout=stackLayout;horizontal=1;startSize=30;horizontalStack=0;resizeParent=1;resizeParentMax=0;resizeLast=0;collapsible=1;marginBottom=0;whiteSpace=wrap;html=1;" vertex="1" parent="1">
          <mxGeometry x="590" y="548" width="140" height="150" as="geometry" />
        </mxCell>
        <mxCell id="id5cuRZvyyORNxoi3UNM-19" value="&lt;b&gt;&lt;u&gt;step_id&lt;/u&gt;&lt;/b&gt;" style="text;strokeColor=none;fillColor=none;align=left;verticalAlign=middle;spacingLeft=4;spacingRight=4;overflow=hidden;points=[[0,0.5],[1,0.5]];portConstraint=eastwest;rotatable=0;whiteSpace=wrap;html=1;" vertex="1" parent="id5cuRZvyyORNxoi3UNM-18">
          <mxGeometry y="30" width="140" height="30" as="geometry" />
        </mxCell>
        <mxCell id="id5cuRZvyyORNxoi3UNM-20" value="num" style="text;strokeColor=none;fillColor=none;align=left;verticalAlign=middle;spacingLeft=4;spacingRight=4;overflow=hidden;points=[[0,0.5],[1,0.5]];portConstraint=eastwest;rotatable=0;whiteSpace=wrap;html=1;" vertex="1" parent="id5cuRZvyyORNxoi3UNM-18">
          <mxGeometry y="60" width="140" height="30" as="geometry" />
        </mxCell>
        <mxCell id="id5cuRZvyyORNxoi3UNM-22" value="text&lt;span style=&quot;color: rgba(0, 0, 0, 0); font-family: monospace; font-size: 0px; text-wrap: nowrap;&quot;&gt;%3CmxGraphModel%3E%3Croot%3E%3CmxCell%20id%3D%220%22%2F%3E%3CmxCell%20id%3D%221%22%20parent%3D%220%22%2F%3E%3CmxCell%20id%3D%222%22%20value%3D%22recipe_id%26lt%3Bspan%20style%3D%26quot%3Bcolor%3A%20rgba(0%2C%200%2C%200%2C%200)%3B%20font-family%3A%20monospace%3B%20font-size%3A%200px%3B%20text-wrap%3A%20nowrap%3B%26quot%3B%26gt%3B%253CmxGraphModel%253E%253Croot%253E%253CmxCell%2520id%253D%25220%2522%252F%253E%253CmxCell%2520id%253D%25221%2522%2520parent%253D%25220%2522%252F%253E%253CmxCell%2520id%253D%25222%2522%2520value%253D%2522user_id%2522%2520style%253D%2522text%253BstrokeColor%253Dnone%253BfillColor%253Dnone%253Balign%253Dleft%253BverticalAlign%253Dmiddle%253BspacingLeft%253D4%253BspacingRight%253D4%253Boverflow%253Dhidden%253Bpoints%253D%255B%255B0%252C0.5%255D%252C%255B1%252C0.5%255D%255D%253BportConstraint%253Deastwest%253Brotatable%253D0%253BwhiteSpace%253Dwrap%253Bhtml%253D1%253B%2522%2520vertex%253D%25221%2522%2520parent%253D%25221%2522%253E%253CmxGeometry%2520x%253D%2522522%2522%2520y%253D%2522355%2522%2520width%253D%2522140%2522%2520height%253D%252230%2522%2520as%253D%2522geometry%2522%252F%253E%253C%252FmxCell%253E%253C%252Froot%253E%253C%252FmxGraphModel%253E%26lt%3B%2Fspan%26gt%3B%22%20style%3D%22text%3BstrokeColor%3Dnone%3BfillColor%3Dnone%3Balign%3Dleft%3BverticalAlign%3Dmiddle%3BspacingLeft%3D4%3BspacingRight%3D4%3Boverflow%3Dhidden%3Bpoints%3D%5B%5B0%2C0.5%5D%2C%5B1%2C0.5%5D%5D%3BportConstraint%3Deastwest%3Brotatable%3D0%3BwhiteSpace%3Dwrap%3Bhtml%3D1%3B%22%20vertex%3D%221%22%20parent%3D%221%22%3E%3CmxGeometry%20x%3D%22343%22%20y%3D%22652%22%20width%3D%22140%22%20height%3D%2230%22%20as%3D%22geometry%22%2F%3E%3C%2FmxCell%3E%3C%2Froot%3E%3C%2FmxGraphModel%3E&lt;/span&gt;" style="text;strokeColor=none;fillColor=none;align=left;verticalAlign=middle;spacingLeft=4;spacingRight=4;overflow=hidden;points=[[0,0.5],[1,0.5]];portConstraint=eastwest;rotatable=0;whiteSpace=wrap;html=1;" vertex="1" parent="id5cuRZvyyORNxoi3UNM-18">
          <mxGeometry y="90" width="140" height="30" as="geometry" />
        </mxCell>
        <mxCell id="id5cuRZvyyORNxoi3UNM-23" value="image" style="text;strokeColor=none;fillColor=none;align=left;verticalAlign=middle;spacingLeft=4;spacingRight=4;overflow=hidden;points=[[0,0.5],[1,0.5]];portConstraint=eastwest;rotatable=0;whiteSpace=wrap;html=1;" vertex="1" parent="id5cuRZvyyORNxoi3UNM-18">
          <mxGeometry y="120" width="140" height="30" as="geometry" />
        </mxCell>
        <mxCell id="id5cuRZvyyORNxoi3UNM-25" value="" style="endArrow=ERone;html=1;rounded=0;exitX=0.5;exitY=0;exitDx=0;exitDy=0;startArrow=ERzeroToMany;startFill=0;endFill=0;entryX=0.514;entryY=1.06;entryDx=0;entryDy=0;entryPerimeter=0;" edge="1" parent="1" source="5fEkNX3tAa7af-l1s7IT-18" target="id5cuRZvyyORNxoi3UNM-24">
          <mxGeometry width="50" height="50" relative="1" as="geometry">
            <mxPoint x="609" y="324" as="sourcePoint" />
            <mxPoint x="652" y="168" as="targetPoint" />
          </mxGeometry>
        </mxCell>
        <mxCell id="id5cuRZvyyORNxoi3UNM-34" value="Recipe belongs to" style="edgeLabel;html=1;align=center;verticalAlign=middle;resizable=0;points=[];" vertex="1" connectable="0" parent="id5cuRZvyyORNxoi3UNM-25">
          <mxGeometry x="-0.1795" y="3" relative="1" as="geometry">
            <mxPoint x="49" y="-7" as="offset" />
          </mxGeometry>
        </mxCell>
        <mxCell id="id5cuRZvyyORNxoi3UNM-26" value="" style="endArrow=ERone;html=1;rounded=0;entryX=0.491;entryY=1.067;entryDx=0;entryDy=0;entryPerimeter=0;startArrow=ERzeroToMany;startFill=0;endFill=0;exitX=0.434;exitY=0.007;exitDx=0;exitDy=0;exitPerimeter=0;" edge="1" parent="1" source="id5cuRZvyyORNxoi3UNM-18" target="5fEkNX3tAa7af-l1s7IT-28">
          <mxGeometry width="50" height="50" relative="1" as="geometry">
            <mxPoint x="652" y="544" as="sourcePoint" />
            <mxPoint x="659" y="547" as="targetPoint" />
          </mxGeometry>
        </mxCell>
        <mxCell id="id5cuRZvyyORNxoi3UNM-35" value="Recipe contains" style="edgeLabel;html=1;align=center;verticalAlign=middle;resizable=0;points=[];" vertex="1" connectable="0" parent="id5cuRZvyyORNxoi3UNM-26">
          <mxGeometry x="0.3992" y="1" relative="1" as="geometry">
            <mxPoint x="52" y="10" as="offset" />
          </mxGeometry>
        </mxCell>
        <mxCell id="id5cuRZvyyORNxoi3UNM-27" value="" style="endArrow=ERone;html=1;rounded=0;entryX=0;entryY=0.2;entryDx=0;entryDy=0;entryPerimeter=0;exitX=1;exitY=0.5;exitDx=0;exitDy=0;startArrow=ERzeroToMany;startFill=0;endFill=0;" edge="1" parent="1" source="id5cuRZvyyORNxoi3UNM-40" target="id5cuRZvyyORNxoi3UNM-19">
          <mxGeometry width="50" height="50" relative="1" as="geometry">
            <mxPoint x="464" y="796" as="sourcePoint" />
            <mxPoint x="514" y="746" as="targetPoint" />
          </mxGeometry>
        </mxCell>
        <mxCell id="id5cuRZvyyORNxoi3UNM-39" value="Step is commented" style="edgeLabel;html=1;align=center;verticalAlign=middle;resizable=0;points=[];" vertex="1" connectable="0" parent="id5cuRZvyyORNxoi3UNM-27">
          <mxGeometry x="-0.2282" y="2" relative="1" as="geometry">
            <mxPoint x="30" y="-9" as="offset" />
          </mxGeometry>
        </mxCell>
        <mxCell id="id5cuRZvyyORNxoi3UNM-28" value="" style="endArrow=ERone;html=1;rounded=0;entryX=0.107;entryY=1.133;entryDx=0;entryDy=0;entryPerimeter=0;exitX=0.116;exitY=-0.002;exitDx=0;exitDy=0;startArrow=ERzeroToMany;startFill=0;endFill=0;exitPerimeter=0;" edge="1" parent="1" source="id5cuRZvyyORNxoi3UNM-14" target="5fEkNX3tAa7af-l1s7IT-16">
          <mxGeometry width="50" height="50" relative="1" as="geometry">
            <mxPoint x="388" y="447" as="sourcePoint" />
            <mxPoint x="438" y="397" as="targetPoint" />
          </mxGeometry>
        </mxCell>
        <mxCell id="id5cuRZvyyORNxoi3UNM-36" value="User writes" style="edgeLabel;html=1;align=center;verticalAlign=middle;resizable=0;points=[];" vertex="1" connectable="0" parent="id5cuRZvyyORNxoi3UNM-28">
          <mxGeometry x="0.045" relative="1" as="geometry">
            <mxPoint x="-31" y="-1" as="offset" />
          </mxGeometry>
        </mxCell>
        <mxCell id="id5cuRZvyyORNxoi3UNM-30" value="" style="endArrow=ERone;html=1;rounded=0;entryX=0.639;entryY=0.947;entryDx=0;entryDy=0;entryPerimeter=0;startArrow=ERzeroToMany;startFill=0;endFill=0;" edge="1" parent="1">
          <mxGeometry width="50" height="50" relative="1" as="geometry">
            <mxPoint x="241" y="330" as="sourcePoint" />
            <mxPoint x="241.46000000000004" y="199.40999999999997" as="targetPoint" />
          </mxGeometry>
        </mxCell>
        <mxCell id="id5cuRZvyyORNxoi3UNM-37" value="User marks" style="edgeLabel;html=1;align=center;verticalAlign=middle;resizable=0;points=[];" vertex="1" connectable="0" parent="id5cuRZvyyORNxoi3UNM-30">
          <mxGeometry x="-0.0439" y="-3" relative="1" as="geometry">
            <mxPoint x="27" y="14" as="offset" />
          </mxGeometry>
        </mxCell>
        <mxCell id="id5cuRZvyyORNxoi3UNM-31" value="" style="endArrow=ERone;html=1;rounded=0;entryX=0.006;entryY=0.787;entryDx=0;entryDy=0;exitX=1.013;exitY=0.069;exitDx=0;exitDy=0;exitPerimeter=0;startArrow=ERzeroToMany;startFill=0;endFill=0;entryPerimeter=0;" edge="1" parent="1" source="id5cuRZvyyORNxoi3UNM-1" target="5fEkNX3tAa7af-l1s7IT-20">
          <mxGeometry width="50" height="50" relative="1" as="geometry">
            <mxPoint x="388" y="347" as="sourcePoint" />
            <mxPoint x="438" y="297" as="targetPoint" />
          </mxGeometry>
        </mxCell>
        <mxCell id="id5cuRZvyyORNxoi3UNM-38" value="Recipe is rated" style="edgeLabel;html=1;align=center;verticalAlign=middle;resizable=0;points=[];" vertex="1" connectable="0" parent="id5cuRZvyyORNxoi3UNM-31">
          <mxGeometry x="0.1321" y="-2" relative="1" as="geometry">
            <mxPoint x="-16" y="-15" as="offset" />
          </mxGeometry>
        </mxCell>
        <mxCell id="id5cuRZvyyORNxoi3UNM-32" value="" style="endArrow=ERzeroToMany;html=1;rounded=0;entryX=0.861;entryY=1;entryDx=0;entryDy=0;entryPerimeter=0;exitX=0.25;exitY=0;exitDx=0;exitDy=0;startArrow=ERzeroToMany;startFill=0;endFill=0;edgeStyle=elbowEdgeStyle;elbow=vertical;" edge="1" parent="1" source="5fEkNX3tAa7af-l1s7IT-18" target="5fEkNX3tAa7af-l1s7IT-16">
          <mxGeometry width="50" height="50" relative="1" as="geometry">
            <mxPoint x="388" y="247" as="sourcePoint" />
            <mxPoint x="438" y="197" as="targetPoint" />
          </mxGeometry>
        </mxCell>
        <mxCell id="id5cuRZvyyORNxoi3UNM-33" value="Recipe is favourite" style="text;html=1;align=center;verticalAlign=middle;resizable=0;points=[];autosize=1;strokeColor=none;fillColor=none;" vertex="1" parent="1">
          <mxGeometry x="388" y="201" width="117" height="26" as="geometry" />
        </mxCell>
      </root>
    </mxGraphModel>
  </diagram>
  <diagram id="-Oy1L5MlRxIe5HBMK4zl" name="Страница — 2">
    <mxGraphModel dx="1050" dy="629" grid="1" gridSize="10" guides="1" tooltips="1" connect="1" arrows="1" fold="1" page="1" pageScale="1" pageWidth="827" pageHeight="1169" math="0" shadow="0">
      <root>
        <mxCell id="0" />
        <mxCell id="1" parent="0" />
      </root>
    </mxGraphModel>
  </diagram>
</mxfile>
